<svg width="32" height="32" viewBox="0 0 32 32" fill="none" xmlns="http://www.w3.org/2000/svg">
<path d="M29.3332 11.5866C29.3332 13.1733 29.0798 14.64 28.6398 16C26.5332 22.6667 20.0398 26.6533 16.8265 27.7467C16.3732 27.9067 15.6265 27.9067 15.1732 27.7467C14.3198 27.4533 13.2398 26.96 12.0798 26.2667C11.3332 25.8267 11.2132 24.7866 11.8265 24.1733L26.8665 9.13332C27.5865 8.41332 28.8532 8.71998 29.1065 9.70665C29.2532 10.3067 29.3332 10.9333 29.3332 11.5866Z" fill="white"/>
<path d="M30.0399 1.96004C29.6533 1.57338 29.0133 1.57338 28.6266 1.96004L25.5066 5.08004C24.4533 4.48004 23.2266 4.13338 21.9199 4.13338C19.5066 4.13338 17.3466 5.30671 15.9999 7.10671C14.6533 5.30671 12.4933 4.13338 10.0799 4.13338C5.98659 4.13338 2.66659 7.46671 2.66659 11.5867C2.66659 13.1734 2.91992 14.64 3.35992 16C4.22659 18.76 5.85326 21.0667 7.69326 22.8934L1.95992 28.6267C1.57326 29.0134 1.57326 29.6534 1.95992 30.04C2.15992 30.24 2.41326 30.3334 2.66659 30.3334C2.91992 30.3334 3.17326 30.24 3.37326 30.04L30.0399 3.37338C30.4266 2.98671 30.4266 2.34671 30.0399 1.96004Z" fill="white"/>
</svg>
