<svg width="25" height="25" viewBox="0 0 25 25" fill="none" xmlns="http://www.w3.org/2000/svg">
<path opacity="0.97" d="M16.69 2.5H8.31C4.67 2.5 2.5 4.67 2.5 8.31V16.68C2.5 20.33 4.67 22.5 8.31 22.5H16.68C20.32 22.5 22.49 20.33 22.49 16.69V8.31C22.5 4.67 20.33 2.5 16.69 2.5ZM8.81 16.81C8.09 16.81 7.5 16.22 7.5 15.5C7.5 14.78 8.09 14.19 8.81 14.19C9.53 14.19 10.12 14.78 10.12 15.5C10.12 16.22 9.53 16.81 8.81 16.81ZM12.5 10.81C11.78 10.81 11.19 10.22 11.19 9.5C11.19 8.78 11.78 8.19 12.5 8.19C13.22 8.19 13.81 8.78 13.81 9.5C13.81 10.22 13.22 10.81 12.5 10.81ZM16.19 16.81C15.47 16.81 14.88 16.22 14.88 15.5C14.88 14.78 15.47 14.19 16.19 14.19C16.91 14.19 17.5 14.78 17.5 15.5C17.5 16.22 16.91 16.81 16.19 16.81Z" fill="#B2B2B2"/>
</svg>
